<svg fill=" rgb(0 0 0)" xmlns="http://www.w3.org/2000/svg" viewBox="0 0 48 48"><title>Bathing in bathtub</title><g id="Bathing_in_bathtub" data-name="Bathing in bathtub"><path d="M45,24H44V22a2,2,0,0,0-2-2H41V3.07A3,3,0,0,0,36.79.33L35.25,1c-3.34-2.51-8,.38-6.52,1.87,6.05,6.05,5.78,6,6.37,6,1.27,0,3.14-3.34,1.52-6.24l1-.43A1,1,0,0,1,39,3.07V20H38a2,2,0,0,0-2,2v2H33.72A2,2,0,0,0,32,23c-6.12,0-6.95-.33-7.72,1H17.06l-3.23-3.25A5,5,0,0,0,5.3,24H3a3,3,0,0,0-.89,5.85C3.62,40.39,3.39,40.8,4.76,42.32l-.41,2.47A2.75,2.75,0,0,0,7.06,48c2,0,2.57-1.64,4.14-4H36.79l1.86,2.78A2.75,2.75,0,0,0,43,47c1-1.24.58-2.44.21-4.71,1.38-1.52,1.14-1.93,2.65-12.47A3,3,0,0,0,45,24ZM35,6.29l-4-4A3,3,0,0,1,35,6.29ZM38,22h4v2H38Zm-6,3v8H26V25ZM12.41,22.17,14.24,24H7.31A3,3,0,0,1,12.41,22.17ZM2.31,26.29C2.71,25.88,1,26,24,26v2H3A1,1,0,0,1,2.31,26.29ZM7.69,45.66a.75.75,0,0,1-1.2.08c-.31-.38-.15-.72.09-2.13A5.14,5.14,0,0,0,8.8,44Zm33.82.08a.76.76,0,0,1-1.2-.08L39.2,44a5.12,5.12,0,0,0,2.22-.39C41.68,45.19,41.8,45.4,41.51,45.74Zm1-6.31a3,3,0,0,1-3,2.57H8.47a3,3,0,0,1-3-2.57L4.15,30H24v4a1,1,0,0,0,1,1h8a1,1,0,0,0,1-1V30h9.85Zm3.19-11.72c-.4.41.17.29-11.69.29V26H45A1,1,0,0,1,45.69,27.71Z"/><path d="M28,7.83a1,1,0,1,0,1.42,0A1,1,0,0,0,28,7.83Z"/><path d="M25.52,10.44a1,1,0,0,0-.32,1.63,1,1,0,1,0,.32-1.63Z"/><path d="M31.88,10.17a1,1,0,1,0-.61-.93A1,1,0,0,0,31.88,10.17Z"/><path d="M30.15,11.36a1,1,0,1,0,1.7.71A1,1,0,0,0,30.15,11.36Z"/><path d="M29.06,14a1,1,0,0,0,.76,1.84A1,1,0,0,0,29.06,14Z"/><path d="M27.64,5.92A1,1,0,1,0,27,5,1,1,0,0,0,27.64,5.92Z"/><path d="M25.2,7.41a1,1,0,1,0-1-1A1,1,0,0,0,25.2,7.41Z"/><path d="M21.66,8.53a1,1,0,0,0,1.42,0,1,1,0,0,0,0-1.41A1,1,0,0,0,21.66,8.53Z"/><path d="M7,18a4,4,0,1,0-4-4A4,4,0,0,0,7,18Zm0-6a2,2,0,1,1-2,2A2,2,0,0,1,7,12Z"/></g></svg>